<?xml version="1.0" standalone="no"?>
<!DOCTYPE svg PUBLIC "-//W3C//DTD SVG 20010904//EN"
 "http://www.w3.org/TR/2001/REC-SVG-20010904/DTD/svg10.dtd">
<svg version="1.0" xmlns="http://www.w3.org/2000/svg"
 width="1024.000000pt" height="1024.000000pt" viewBox="0 0 1024.000000 1024.000000"
 preserveAspectRatio="xMidYMid meet">

<g transform="translate(0.000000,1024.000000) scale(0.100000,-0.100000)"
fill="#000000" stroke="none">
<path d="M4705 8434 c-295 -31 -654 -173 -869 -344 -237 -189 -403 -484 -467
-835 -32 -171 -30 -290 4 -378 32 -81 35 -154 8 -214 -24 -52 -82 -138 -254
-376 -86 -119 -139 -201 -143 -223 -14 -73 22 -146 88 -180 16 -8 64 -22 106
-30 128 -24 142 -53 92 -191 -28 -78 -22 -105 37 -162 l46 -44 -17 -46 c-23
-66 -20 -92 17 -141 78 -103 79 -108 46 -247 -29 -120 -24 -198 17 -255 34
-49 108 -103 162 -118 52 -14 202 -12 367 5 251 26 315 18 354 -46 24 -39 54
-148 93 -339 28 -137 30 -153 23 -300 -8 -202 -7 -237 11 -271 30 -58 77 -50
254 46 299 162 469 239 745 337 252 89 514 145 785 168 74 6 139 15 144 20 5
5 -8 80 -33 182 -94 391 -115 537 -115 793 -1 194 0 202 27 279 15 43 60 138
99 210 198 367 233 433 272 519 70 149 104 259 117 384 6 62 8 133 4 159 -8
59 -121 284 -142 284 -8 0 -52 -20 -96 -44 -268 -143 -605 -326 -687 -371 -52
-29 -119 -65 -147 -79 -33 -16 -53 -33 -53 -43 0 -10 44 -98 97 -198 92 -171
97 -183 101 -251 8 -135 -48 -211 -229 -311 -146 -82 -164 -88 -244 -87 -90 0
-122 17 -207 107 l-68 72 -76 -38 c-95 -47 -151 -55 -228 -33 -90 27 -137 77
-227 248 -202 379 -329 627 -343 671 -48 143 8 278 145 347 79 41 83 48 65
111 -53 178 9 277 251 402 145 75 201 88 277 67 70 -19 118 -68 172 -172 69
-135 155 -292 164 -302 5 -5 159 70 357 174 593 312 643 341 643 369 0 31
-147 315 -192 372 -112 142 -372 263 -689 319 -102 19 -167 23 -374 25 -137 2
-268 1 -290 -1z"/>
<path d="M6545 8389 c-16 -5 -84 -37 -150 -72 -110 -57 -122 -66 -143 -107
-26 -51 -23 -103 8 -155 50 -85 210 -407 205 -415 -3 -4 -63 -39 -133 -75 -70
-37 -217 -116 -327 -175 -527 -284 -788 -420 -796 -415 -10 7 -92 152 -193
345 -81 154 -111 190 -154 190 -31 0 -131 -46 -250 -114 -90 -52 -108 -79
-100 -149 4 -31 97 -214 351 -687 190 -355 360 -662 379 -683 53 -62 91 -61
211 2 139 73 175 97 197 134 29 47 25 80 -18 155 -22 37 -83 151 -136 254
l-97 187 23 14 c13 8 181 99 373 202 193 103 461 248 596 321 135 74 253 134
262 134 8 0 18 -9 22 -19 3 -11 36 -77 74 -148 175 -330 183 -340 262 -350 34
-5 56 2 156 53 64 33 133 75 154 95 36 33 39 40 39 89 0 48 -10 73 -109 264
-505 973 -568 1090 -591 1107 -32 24 -77 31 -115 18z"/>
<path d="M7007 8300 c-39 -12 -126 -69 -137 -91 -19 -34 -10 -68 54 -190 288
-560 372 -718 394 -741 38 -41 100 -39 172 5 77 46 103 87 98 157 -4 49 -26
96 -197 420 -107 201 -208 380 -225 398 -42 45 -99 60 -159 42z"/>
<path d="M4420 6955 c-36 -19 -73 -44 -82 -56 -28 -33 -40 -93 -28 -136 16
-62 397 -765 430 -795 47 -43 87 -45 169 -8 86 40 115 69 115 116 0 40 -81
206 -305 623 -126 235 -145 265 -175 277 -46 19 -50 18 -124 -21z"/>
<path d="M1458 3261 c-149 -48 -237 -176 -226 -329 6 -79 30 -132 85 -183 47
-46 95 -70 204 -104 210 -66 253 -90 265 -150 8 -43 -17 -95 -56 -119 -75 -44
-224 -25 -274 35 -14 17 -29 48 -32 70 l-7 39 -108 0 -109 0 0 -38 c0 -159
133 -288 327 -315 149 -22 292 19 385 110 68 67 92 128 92 233 0 100 -19 145
-83 203 -55 50 -95 68 -251 117 -163 51 -205 75 -221 129 -21 70 27 127 116
137 102 12 196 -41 210 -119 l7 -37 100 0 100 0 -7 58 c-16 131 -91 225 -212
262 -85 26 -224 26 -305 1z"/>
<path d="M5797 3263 c-1 -1 -1 -244 1 -540 l2 -538 105 3 105 3 2 377 3 377
145 -377 145 -378 66 0 c54 0 68 3 73 17 108 280 280 720 285 725 3 4 6 -162
6 -368 l0 -374 113 0 112 0 -2 538 -3 537 -151 3 -150 3 -112 -283 c-61 -156
-122 -311 -134 -345 -13 -35 -25 -63 -28 -63 -3 0 -45 100 -94 223 -49 122
-111 276 -138 343 l-49 121 -150 -1 c-83 -1 -151 -2 -152 -3z"/>
<path d="M7156 3255 c-55 -29 -75 -83 -52 -140 34 -81 160 -88 206 -13 24 39
25 69 5 108 -28 55 -101 75 -159 45z"/>
<path d="M8840 3080 l0 -189 -26 24 c-53 49 -113 70 -199 70 -71 0 -89 -4
-147 -33 -71 -34 -135 -97 -169 -164 -46 -89 -61 -233 -35 -339 55 -238 336
-362 526 -234 l50 34 0 -35 0 -35 108 3 107 3 3 543 2 542 -110 0 -110 0 0
-190z m-95 -292 c74 -38 110 -119 103 -233 -9 -132 -74 -204 -186 -205 -102 0
-162 48 -182 147 -21 101 4 218 58 266 48 44 147 55 207 25z"/>
<path d="M2150 3063 l0 -103 -55 0 -55 0 0 -85 0 -85 54 0 54 0 4 -227 c3
-210 5 -231 25 -268 42 -79 105 -116 210 -123 39 -2 92 -1 117 2 l46 7 0 94 0
93 -36 -8 c-53 -12 -102 -1 -124 28 -18 23 -20 41 -20 213 l0 189 90 0 90 0 0
85 0 85 -90 0 -89 0 -3 101 -3 100 -108 2 -107 2 0 -102z"/>
<path d="M3460 2976 c-30 -6 -76 -22 -101 -34 -61 -30 -143 -118 -177 -189
-25 -53 -27 -69 -27 -178 0 -109 2 -125 27 -177 123 -263 481 -316 678 -101
60 65 90 142 97 244 16 223 -120 405 -328 439 -78 12 -98 12 -169 -4z m185
-196 c27 -13 50 -34 66 -63 21 -37 24 -54 24 -142 0 -110 -17 -161 -66 -198
-57 -42 -162 -43 -221 -3 -59 39 -73 78 -73 196 0 87 4 112 21 145 41 78 159
109 249 65z"/>
<path d="M4405 2981 c-45 -12 -76 -30 -117 -69 l-38 -36 0 42 0 42 -100 0
-100 0 0 -390 0 -390 105 0 105 0 0 250 c0 270 4 293 54 339 19 18 40 25 78
28 66 5 114 -18 143 -67 18 -32 20 -55 23 -292 l3 -258 105 0 104 0 0 249 c0
136 -5 272 -10 302 -20 105 -80 188 -165 229 -46 22 -144 33 -190 21z"/>
<path d="M5152 2978 c-176 -27 -295 -188 -294 -398 0 -94 12 -139 54 -210 62
-102 176 -164 303 -164 88 0 137 16 188 63 l40 36 -6 -65 c-9 -87 -41 -149
-92 -178 -33 -19 -52 -22 -112 -20 -81 4 -118 23 -143 76 l-15 32 -99 0 -99 0
6 -45 c11 -100 85 -187 194 -229 27 -10 87 -20 139 -23 197 -12 340 71 406
237 22 53 23 67 26 463 l3 407 -112 0 -111 0 4 -35 c2 -19 2 -35 1 -35 -2 0
-14 10 -26 21 -30 29 -114 66 -162 71 -22 2 -64 1 -93 -4z m188 -198 c63 -32
100 -102 100 -190 0 -91 -47 -168 -118 -191 -50 -17 -133 -7 -171 20 -60 43
-91 139 -71 226 28 124 153 189 260 135z"/>
<path d="M7805 2981 c-48 -12 -91 -38 -119 -71 l-26 -32 0 41 0 41 -105 0
-105 0 0 -390 0 -390 105 0 105 0 0 238 c0 256 6 296 49 344 23 26 36 32 82
35 67 5 115 -17 144 -67 18 -32 20 -55 23 -292 l3 -258 105 0 105 0 -3 288
c-3 285 -3 287 -29 342 -36 76 -71 115 -132 144 -56 28 -152 40 -202 27z"/>
<path d="M3009 2971 c-43 -14 -72 -32 -111 -69 l-38 -36 0 47 0 47 -105 0
-105 0 0 -390 0 -390 105 0 105 0 0 213 c1 221 8 266 47 309 33 37 94 61 155
62 l58 1 0 108 0 107 -42 -1 c-24 0 -55 -4 -69 -8z"/>
<path d="M7100 2570 l0 -390 105 0 105 0 0 390 0 390 -105 0 -105 0 0 -390z"/>
</g>
</svg>
